<svg width="17" height="19" viewBox="0 0 17 19" fill="none" xmlns="http://www.w3.org/2000/svg">
<path d="M8.22967 0.254944C3.87956 0.254944 0.337891 3.79661 0.337891 8.14673C0.337891 10.0996 1.05433 11.8906 2.23105 13.2677L2.23468 13.2713L2.23739 13.2749C2.23739 13.2749 5.59462 17.1058 6.78986 18.2463C7.59024 19.0094 8.8682 19.0094 9.66858 18.2463C11.031 16.9468 14.2229 13.2731 14.2229 13.2731L14.2247 13.2704L14.2274 13.2677C15.4052 11.8906 16.1215 10.0996 16.1215 8.14673C16.1215 3.79661 12.5798 0.254944 8.22967 0.254944ZM8.22967 1.64761C11.8271 1.64761 14.7288 4.54935 14.7288 8.14673C14.7288 9.76 14.1409 11.2257 13.1684 12.3628C13.1621 12.3701 9.89625 16.1051 8.7075 17.239C8.43181 17.5018 8.02663 17.5018 7.75094 17.239C6.75743 16.2909 3.30014 12.3742 3.29006 12.3628L3.28915 12.3619C2.31795 11.2249 1.73056 9.75955 1.73056 8.14673C1.73056 4.54935 4.6323 1.64761 8.22967 1.64761ZM8.22967 5.36139C7.35926 5.36139 6.61827 5.71287 6.14249 6.24813C5.6667 6.78339 5.44434 7.46974 5.44434 8.14673C5.44434 8.82372 5.6667 9.51006 6.14249 10.0453C6.61827 10.5806 7.35926 10.9321 8.22967 10.9321C9.10009 10.9321 9.84108 10.5806 10.3169 10.0453C10.7926 9.51006 11.015 8.82372 11.015 8.14673C11.015 7.46974 10.7926 6.78339 10.3169 6.24813C9.84108 5.71287 9.10009 5.36139 8.22967 5.36139ZM8.22967 6.75406C8.75192 6.75406 9.05544 6.92483 9.27599 7.17295C9.49654 7.42106 9.62234 7.77922 9.62234 8.14673C9.62234 8.51424 9.49654 8.87239 9.27599 9.12051C9.05544 9.36862 8.75192 9.53939 8.22967 9.53939C7.70742 9.53939 7.40391 9.36862 7.18336 9.12051C6.96281 8.87239 6.83701 8.51424 6.83701 8.14673C6.83701 7.77922 6.96281 7.42106 7.18336 7.17295C7.40391 6.92483 7.70742 6.75406 8.22967 6.75406Z" fill="white" fill-opacity="0.6"></path>
</svg>