<svg width="20" height="16" viewBox="0 0 20 16" fill="none" xmlns="http://www.w3.org/2000/svg">
<path d="M5.8216 0.0350342C4.93264 0.0350342 4.19682 0.770848 4.19682 1.65981V2.5801L1.9691 3.90567C1.33643 4.28179 0.947266 4.96536 0.947266 5.70091V12.8012C0.947266 14.4593 2.30654 15.8186 3.96471 15.8186H16.4987C18.1569 15.8186 19.5162 14.4593 19.5162 12.8012V5.70181C19.5162 4.96583 19.1272 4.28268 18.4952 3.90658C18.4949 3.90628 18.4946 3.90597 18.4943 3.90567L16.2666 2.581V1.65981C16.2666 0.770848 15.5308 0.0350342 14.6418 0.0350342H5.8216ZM5.8216 1.4277H14.6418C14.7788 1.4277 14.8739 1.52285 14.8739 1.65981V6.98296L10.2317 9.24151L5.58949 6.98296V3.08421C5.60177 3.00946 5.60177 2.9332 5.58949 2.85845V1.65981C5.58949 1.52285 5.68464 1.4277 5.8216 1.4277ZM4.19682 4.20125V6.30567L2.39977 5.43162C2.45664 5.2973 2.55052 5.17998 2.68085 5.10249L4.19682 4.20125ZM16.2666 4.20216L17.7826 5.1034C17.9122 5.18075 18.0057 5.29774 18.0628 5.43162L16.2666 6.30567V4.20216ZM2.33993 6.95122L9.92707 10.6423C10.022 10.6885 10.1262 10.7125 10.2317 10.7125C10.3373 10.7125 10.4414 10.6885 10.5364 10.6423L18.1235 6.95122V12.8012C18.1235 13.7064 17.404 14.4259 16.4987 14.4259H3.96471C3.05945 14.4259 2.33993 13.7064 2.33993 12.8012V6.95122Z" fill="white" fill-opacity="0.6"></path>
</svg>