<svg width="15" height="19" viewBox="0 0 15 19" fill="none" xmlns="http://www.w3.org/2000/svg">
<path d="M4.69846 0.0402046C4.39288 0.0179739 4.07977 0.0492073 3.77274 0.13994L2.67383 0.46544C1.50286 0.811753 0.58792 1.74084 0.278373 2.91349C-0.408944 5.52137 0.37732 8.60818 2.42359 12.0828C4.46698 15.5526 6.79536 17.7578 9.42501 18.4776C10.6092 18.8018 11.8864 18.4921 12.7834 17.6589L13.6193 16.8837C14.5547 16.0152 14.6942 14.5686 13.9385 13.5407L12.7308 11.9005C12.0834 11.0212 10.9422 10.6469 9.89286 10.9621L8.00333 11.5279C7.92401 11.5511 7.7342 11.443 7.56902 11.3003L7.56812 11.2994C7.27392 11.0436 6.86631 10.5265 6.43023 9.78706V9.78616C5.96263 8.992 5.76319 8.47262 5.68312 8.16591C5.60301 7.85906 5.62245 7.82173 5.63416 7.71801C5.64024 7.66626 5.66483 7.6183 5.70669 7.58019L5.7076 7.57929L7.11659 6.29089C7.92382 5.55294 8.16752 4.37365 7.71228 3.38134L6.86272 1.52807V1.52717C6.46274 0.655311 5.61495 0.106878 4.69846 0.0402046ZM4.59782 1.42925C5.02407 1.46109 5.41657 1.71677 5.59608 2.10835L6.44655 3.96162C6.65237 4.41025 6.54916 4.92364 6.17726 5.26361L4.76828 6.55111C4.47943 6.81447 4.29472 7.17354 4.25056 7.56115V7.56206C4.23906 7.66399 4.21187 8.04304 4.33579 8.51771C4.4597 8.99237 4.71554 9.6202 5.22978 10.4934H5.23068C5.7105 11.3072 6.16398 11.9254 6.65509 12.3521H6.65599C6.81548 12.4901 7.48392 13.1308 8.3932 12.8653L8.39592 12.8644L10.2936 12.2959C10.7864 12.1478 11.3133 12.3246 11.6092 12.7265L12.8169 14.3667C13.1589 14.8327 13.0992 15.466 12.6718 15.8628L11.8359 16.6389C11.3013 17.1357 10.5073 17.3297 9.79221 17.1339C7.66637 16.552 5.56275 14.6685 3.62404 11.3765C1.68264 8.07994 1.07543 5.35339 1.6248 3.26891C1.8064 2.58095 2.36281 2.00988 3.06915 1.80099L4.16714 1.47549C4.31017 1.43322 4.45574 1.41863 4.59782 1.42925Z" fill="white" fill-opacity="0.6"></path>
</svg>