<svg width="19" height="18" viewBox="0 0 19 18" fill="none" xmlns="http://www.w3.org/2000/svg"><path fill-rule="evenodd" clip-rule="evenodd" d="M3.30705 1.76213C2.35466 1.76213 1.5999 2.51869 1.5999 3.43079C1.5999 4.34289 2.35466 5.09945 3.30705 5.09945C4.25943 5.09945 5.01419 4.34289 5.01419 3.43079C5.01419 2.51869 4.25943 1.76213 3.30705 1.76213ZM0.399902 3.43079C0.399902 1.837 1.71103 0.562134 3.30705 0.562134C4.90306 0.562134 6.21419 1.837 6.21419 3.43079C6.21419 4.16187 5.93831 4.82584 5.48562 5.33045V8.32333H7.68562V3.19198C7.68562 1.99386 8.67055 1.03975 9.86419 1.03975C11.0578 1.03975 12.0428 1.99386 12.0428 3.19198V8.32333H14.2428V3.19198C14.2428 1.99386 15.2277 1.03975 16.4213 1.03975C17.615 1.03975 18.5999 1.99386 18.5999 3.19198V15.6099C18.5999 16.808 17.615 17.7621 16.4213 17.7621C15.2277 17.7621 14.2428 16.808 14.2428 15.6099V12.1502H12.0428V15.6099C12.0428 16.808 11.0578 17.7621 9.86419 17.7621C8.67055 17.7621 7.68562 16.808 7.68562 15.6099V12.1502H5.48562V15.6099C5.48562 16.808 4.50068 17.7621 3.30705 17.7621C2.11341 17.7621 1.12847 16.808 1.12847 15.6099V5.33045C0.675775 4.82584 0.399902 4.16187 0.399902 3.43079ZM2.32847 6.13256V15.6099C2.32847 16.1263 2.75704 16.5621 3.30705 16.5621C3.85705 16.5621 4.28562 16.1263 4.28562 15.6099V10.9502H8.88562V15.6099C8.88562 16.1263 9.31418 16.5621 9.86419 16.5621C10.4142 16.5621 10.8428 16.1263 10.8428 15.6099V10.9502H15.4428V15.6099C15.4428 16.1263 15.8713 16.5621 16.4213 16.5621C16.9713 16.5621 17.3999 16.1263 17.3999 15.6099V3.19198C17.3999 2.67555 16.9713 2.23975 16.4213 2.23975C15.8713 2.23975 15.4428 2.67555 15.4428 3.19198V9.52333H10.8428V3.19198C10.8428 2.67555 10.4142 2.23975 9.86419 2.23975C9.31418 2.23975 8.88562 2.67555 8.88562 3.19198V9.52333H4.28562V6.13256C3.97934 6.24066 3.64976 6.29945 3.30705 6.29945C2.96433 6.29945 2.63475 6.24066 2.32847 6.13256Z" fill="#606680"></path></svg>