<svg width="17" height="17" viewBox="0 0 17 17" fill="none" xmlns="http://www.w3.org/2000/svg"><path d="M0.771484 9.16215H0.769531C0.945129 9.4647 1.19696 9.71586 1.5 9.89067V12.1622H3.5V9.89262C3.80255 9.71702 4.05371 9.46519 4.22852 9.16215H12.7695C12.9451 9.4647 13.197 9.71586 13.5 9.89067V12.1622H15.5V9.89262C15.8038 9.71721 16.0562 9.46501 16.2316 9.16124C16.4072 8.85752 16.3993 8.72057 16.399 8.54669C16.399 8.39053 16.4067 8.20447 16.2311 7.90113C16.0557 7.59778 15.8035 7.34583 15.5 7.1706V4.89911H13.5V7.16864C13.1974 7.34424 12.9463 7.59607 12.7715 7.89911H4.23047C4.05487 7.59656 3.80304 7.3454 3.5 7.1706V4.89911H1.5V7.16864C1.19745 7.34424 0.946289 7.59607 0.771484 7.89911V9.16215Z" fill="#606680"></path><path d="M0.5 1.04669C0.5 0.770691 0.723999 0.546692 1 0.546692H4C4.276 0.546692 4.5 0.770691 4.5 1.04669V2.04669C4.5 2.32269 4.276 2.54669 4 2.54669H1C0.723999 2.54669 0.5 2.32269 0.5 2.04669V1.04669Z" fill="#606680"></path><path d="M12.5 1.04669C12.5 0.770691 12.724 0.546692 13 0.546692H16C16.276 0.546692 16.5 0.770691 16.5 1.04669V2.04669C16.5 2.32269 16.276 2.54669 16 2.54669H13C12.724 2.54669 12.5 2.32269 12.5 2.04669V1.04669Z" fill="#606680"></path><path d="M0.5 14.6622C0.5 14.3862 0.723999 14.1622 1 14.1622H4C4.276 14.1622 4.5 14.3862 4.5 14.6622V15.6622C4.5 15.9382 4.276 16.1622 4 16.1622H1C0.723999 16.1622 0.5 15.9382 0.5 15.6622V14.6622Z" fill="#606680"></path><path d="M12.5 14.6622C12.5 14.3862 12.724 14.1622 13 14.1622H16C16.276 14.1622 16.5 14.3862 16.5 14.6622V15.6622C16.5 15.9382 16.276 16.1622 16 16.1622H13C12.724 16.1622 12.5 15.9382 12.5 15.6622V14.6622Z" fill="#606680"></path></svg>